# Blender v2.75 (sub 0) OBJ File: 'SimpleHouse.blend'
# www.blender.org
mtllib SimpleHouse.mtl
o Cylinder.001
v -0.915912 0.156988 0.723244
v -0.915912 1.169485 0.723244
v -0.867428 1.158936 0.746592
v -0.867428 0.156988 0.746592
v -0.964396 0.156988 0.746592
v -0.964396 1.158936 0.746592
v -0.855454 1.135234 0.799056
v -0.855454 0.156988 0.799056
v -0.976371 0.156988 0.799056
v -0.976371 1.135234 0.799056
v -0.889006 1.116226 0.841129
v -0.889006 0.156988 0.841129
v -0.942819 0.156988 0.841129
v -0.942819 1.116226 0.841129
v 0.926769 0.156988 0.723243
v 0.926769 1.169485 0.723243
v 0.975253 1.158937 0.746592
v 0.975253 0.156988 0.746592
v 0.866310 0.156988 0.799056
v 0.878285 0.156988 0.746592
v 0.987227 0.156988 0.799056
v 1.000000 0.156988 -0.188057
v 0.300000 0.156988 -0.188057
v 0.500000 0.156988 0.907352
v 0.878285 1.158937 0.746592
v 0.866310 1.135234 0.799056
v 0.554445 1.037112 1.016241
v 0.554445 1.532005 -0.079168
v 1.108889 1.532005 -0.079168
v 0.987227 1.135234 0.799056
v 0.953675 0.156988 0.841129
v 0.899862 0.156988 0.841129
v 1.000000 0.156988 0.907352
v 1.000000 1.140638 -0.188057
v 0.300000 1.140638 -0.188057
v 0.000000 0.156988 -0.188057
v 0.000000 0.156988 0.907352
v 0.899862 1.116226 0.841129
v 0.000000 1.532005 -0.079168
v 0.000000 1.037112 1.016241
v 0.300000 1.541880 -0.188057
v 1.000000 1.541880 -0.188057
v 1.108889 1.037112 1.016241
v 0.953675 1.116226 0.841129
v 0.500000 0.029539 0.907352
v 1.000000 0.029539 0.907352
v 1.000000 0.029539 -0.188057
v 1.000000 1.514854 -1.188057
v 1.000000 0.156988 -1.188057
v 0.300000 1.140638 -0.241534
v 0.300000 0.156988 -0.241534
v 0.000000 0.156988 -0.241534
v -0.300000 0.156988 -0.188057
v -0.500000 0.156988 0.907352
v 0.000000 0.029539 0.907352
v -0.554445 1.532005 -0.079168
v -0.554445 1.037112 1.016241
v 0.000000 1.541880 -0.188057
v 0.554445 1.238235 1.016241
v 0.000000 1.238235 1.016241
v 1.000000 2.028392 -1.188057
v 1.108889 1.238235 1.016241
v 0.500000 -0.097908 0.907352
v 1.000000 -0.097908 0.907352
v 1.000000 -0.097908 -0.188057
v 1.000000 0.029539 -1.188057
v 1.000000 1.140638 -2.188057
v 1.000000 0.156988 -2.188057
v 0.000000 1.140638 -0.188057
v 0.000000 1.140638 -0.241534
v -0.300000 0.156988 -0.241534
v -1.000000 0.156988 0.907352
v -1.000000 0.156988 -0.188057
v -0.500000 0.029539 0.907352
v 0.000000 0.029539 1.056996
v 0.500000 0.029539 1.056996
v -1.108889 1.037112 1.016241
v -1.108889 1.532005 -0.079168
v -0.300000 1.541880 -0.188057
v -0.554445 1.238235 1.016241
v 0.554445 2.219641 -1.188057
v 0.000000 2.219641 -1.188057
v 1.108889 2.018517 -1.188057
v 1.108889 2.219641 -1.188057
v 0.500000 -0.097908 1.056996
v 0.500000 -0.097908 -0.188057
v 1.000000 -0.097908 -1.188057
v 1.000000 0.029539 -2.188057
v 0.500000 1.140638 -2.188057
v 0.500000 0.156988 -2.188057
v 1.000000 1.541880 -2.188057
v -0.300000 1.140638 -0.188057
v -0.300000 1.140638 -0.241534
v -1.000000 1.140638 -0.188057
v -1.000000 0.029539 -0.188057
v -1.000000 0.029539 0.907352
v -0.500000 0.029539 1.056996
v 0.000000 -0.097908 1.056996
v -1.108889 1.238235 1.016241
v -1.000000 1.541880 -0.188057
v -0.554445 2.219641 -1.188057
v 0.554445 1.733129 -2.296947
v 0.000000 1.733129 -2.296947
v 1.108889 1.532005 -2.296947
v 1.108889 1.733129 -2.296947
v 0.000000 -0.097908 0.907352
v 0.000000 -0.097908 -0.188057
v 0.500000 -0.097908 -1.188057
v 1.000000 -0.097908 -2.188057
v 0.500000 0.029539 -2.188057
v 0.000000 1.140638 -2.188057
v 0.000000 0.156988 -2.188057
v 0.500000 1.541880 -2.188057
v -1.000000 1.514854 -1.188057
v -1.000000 0.156988 -1.188057
v -1.000000 0.029539 -1.188057
v -1.000000 -0.097908 -0.188057
v -1.000000 -0.097908 0.907352
v -0.500000 -0.097908 0.907352
v -0.500000 -0.097908 1.056996
v -1.108889 2.018517 -1.188057
v -1.108889 2.219641 -1.188057
v -0.554445 1.733129 -2.296947
v 0.554445 1.532005 -2.296947
v 0.000000 1.532005 -2.296947
v -0.500000 -0.097908 -0.188057
v 0.000000 -0.097908 -1.188057
v 0.500000 -0.097908 -2.188057
v 0.000000 0.029539 -2.188057
v -0.500000 1.140638 -2.188057
v -0.500000 0.156988 -2.188057
v 0.000000 1.541880 -2.188057
v -1.000000 2.028392 -1.188057
v -1.000000 1.140638 -2.188057
v -1.000000 0.156988 -2.188057
v -1.000000 0.029539 -2.188057
v -1.000000 -0.097908 -1.188057
v -1.108889 1.532005 -2.296947
v -1.108889 1.733129 -2.296947
v -0.554445 1.532005 -2.296947
v -0.500000 -0.097908 -1.188057
v 0.000000 -0.097908 -2.188057
v -0.500000 0.029539 -2.188057
v -0.500000 1.541880 -2.188057
v -1.000000 1.541880 -2.188057
v -1.000000 -0.097908 -2.188057
v -0.500000 -0.097908 -2.188057
vt 0.101562 0.187500
vt 0.044554 0.940033
vt 0.044579 0.940266
vt 0.043217 0.938812
vt 0.045901 0.938125
vt 0.044630 0.939915
vt 0.044544 0.939943
vt 0.044431 0.939923
vt 0.937500 0.980469
vt 0.044544 0.940037
vt 0.044686 0.940045
vt 0.041158 0.940657
vt 0.044535 0.940648
vt 0.041900 0.938978
vt 0.045536 0.937515
vt 0.043548 0.942360
vt 0.044602 0.941045
vt 0.040364 0.940688
vt 0.044714 0.940242
vt 0.044669 0.940632
vt 0.050058 0.933363
vt 0.050266 0.933950
vt 0.044788 0.940000
vt 0.933594 0.074219
vt 0.044725 0.941351
vt 0.044778 0.941241
vt 0.045914 0.942926
vt 0.044644 0.941296
vt 0.044626 0.941405
vt 0.044764 0.941411
vt 0.044696 0.941323
vt 0.042037 0.942284
vt 0.044727 0.941025
vt 0.051321 0.937845
vt 0.051576 0.940373
vt 0.050611 0.934979
vt 0.044858 0.941254
vt 0.045592 0.943457
vt 0.051274 0.942888
vt 0.057446 0.936715
vt 0.058378 0.940308
vt 0.056236 0.933714
vt 0.055982 0.934336
vt 0.055667 0.934947
vt 0.049995 0.946765
vt 0.050333 0.945799
vt 0.057145 0.943968
vt 0.058652 0.935816
vt 0.060123 0.940358
vt 0.059689 0.935566
vt 0.055594 0.946679
vt 0.055173 0.946086
vt 0.049789 0.947316
vt 0.058495 0.945109
vt 0.061199 0.940372
vt 0.055838 0.947316
vt 0.059591 0.945396
vn 0.433900 0.000000 -0.901000
vn -0.433900 0.000000 -0.901000
vn 0.974900 0.000000 -0.222500
vn -0.974900 0.000000 -0.222500
vn 0.781800 0.000000 0.623500
vn -0.781800 0.000000 0.623500
vn 0.000000 0.000000 1.000000
vn 0.000000 1.000000 0.000000
vn 0.000000 -0.911300 -0.411700
vn -0.000000 -0.995900 -0.090300
vn 1.000000 0.000000 0.000000
vn -1.000000 0.000000 0.000000
vn 0.126100 -0.900800 -0.415600
vn 0.000000 -1.000000 0.000000
vn 0.000000 0.913500 0.406700
vn 0.000000 0.000000 -1.000000
vn 0.000000 0.915700 -0.401800
vn 0.126100 -0.900800 0.415600
vn 0.000000 -0.995900 0.090300
vn -0.126100 -0.900800 -0.415600
vn -0.126100 -0.900800 0.415600
usemtl Material
s off
f 1/1/1 2/1/1 3/1/1 4/1/1
f 5/1/2 6/1/2 2/1/2 1/1/2
f 4/1/3 3/1/3 7/1/3 8/1/3
f 9/1/4 10/1/4 6/1/4 5/1/4
f 8/1/5 7/1/5 11/1/5 12/1/5
f 13/1/6 14/1/6 10/1/6 9/1/6
f 12/1/7 11/1/7 14/1/7 13/1/7
f 15/1/1 16/1/1 17/1/1 18/1/1
f 19/1/8 20/1/8 15/1/8 18/1/8 21/1/8 22/1/8 23/1/8 24/1/8
f 20/1/2 25/1/2 16/1/2 15/1/2
f 26/2/9 27/3/9 28/4/9 29/5/9 30/2/9 17/6/9 16/7/9 25/8/9
f 18/1/3 17/1/3 30/1/3 21/1/3
f 31/1/8 32/1/8 19/1/8 24/1/8 33/1/8 22/1/8 21/1/8
f 19/1/4 26/1/4 25/1/4 20/1/4
f 34/9/7 35/9/7 23/9/7 22/9/7
f 23/1/8 36/1/8 37/1/8 24/1/8
f 26/2/9 38/2/9 44/10/9 30/2/9 29/5/9 43/11/9 27/3/9
f 39/12/9 28/4/9 27/3/9 40/13/9
f 29/5/10 28/4/10 41/14/10 42/15/10
f 21/1/5 30/1/5 44/1/5 31/1/5
f 31/1/7 44/1/7 38/1/7 32/1/7
f 32/1/6 38/1/6 26/1/6 19/1/6
f 33/1/7 24/1/7 45/1/7 46/1/7
f 47/1/11 22/1/11 33/1/11 46/1/11
f 48/9/11 34/9/11 22/9/11 49/9/11
f 42/9/7 41/9/7 35/9/7 34/9/7
f 23/9/12 35/9/12 50/9/12 51/9/12
f 36/9/8 23/9/8 51/9/8 52/9/8
f 36/1/8 53/1/8 54/1/8 37/1/8
f 24/1/7 37/1/7 55/1/7 45/1/7
f 56/16/9 39/12/9 40/13/9 57/17/9
f 28/4/10 39/12/10 58/18/10 41/14/10
f 40/13/7 27/3/7 59/19/7 60/20/7
f 42/15/13 61/21/13 83/22/13 29/5/13
f 29/5/11 62/23/11 43/11/11
f 46/1/7 45/1/7 63/1/7 64/1/7
f 65/1/11 47/1/11 46/1/11 64/1/11
f 49/1/11 22/1/11 47/1/11 66/1/11
f 67/9/11 48/9/11 49/9/11 68/9/11
f 61/9/11 42/9/11 34/9/11 48/9/11
f 41/9/7 58/9/7 69/9/7 35/9/7
f 35/9/14 69/9/14 70/9/14 50/9/14
f 50/24/7 70/24/7 52/24/7 51/24/7
f 53/9/8 36/9/8 52/9/8 71/9/8
f 12/1/8 13/1/8 9/1/8 72/1/8 54/1/8 4/1/8 8/1/8
f 9/1/8 5/1/8 1/1/8 4/1/8 54/1/8 53/1/8 73/1/8 72/1/8
f 37/1/7 54/1/7 74/1/7 55/1/7
f 45/1/8 55/1/8 75/1/8 76/1/8
f 27/3/7 43/11/7 62/23/7 59/19/7
f 10/25/9 77/26/9 78/27/9 56/16/9 7/28/9 3/29/9 2/25/9 6/30/9
f 11/31/9 7/28/9 56/16/9 57/17/9 77/26/9 10/25/9 14/31/9
f 39/12/10 56/16/10 79/32/10 58/18/10
f 57/17/7 40/13/7 60/20/7 80/33/7
f 59/19/15 81/34/15 82/35/15 60/20/15
f 29/5/11 83/22/11 84/36/11 62/23/11
f 63/1/11 45/1/11 76/1/11 85/1/11
f 86/1/14 65/1/14 64/1/14 63/1/14
f 66/1/11 47/1/11 65/1/11 87/1/11
f 68/1/11 49/1/11 66/1/11 88/1/11
f 89/9/16 67/9/16 68/9/16 90/9/16
f 91/9/11 61/9/11 48/9/11 67/9/11
f 58/9/7 79/9/7 92/9/7 69/9/7
f 69/9/14 92/9/14 93/9/14 70/9/14
f 70/24/7 93/24/7 71/24/7 52/24/7
f 92/9/11 53/9/11 71/9/11 93/9/11
f 92/9/7 94/9/7 73/9/7 53/9/7
f 73/1/12 95/1/12 96/1/12 72/1/12
f 54/1/7 72/1/7 96/1/7 74/1/7
f 55/1/8 74/1/8 97/1/8 75/1/8
f 76/1/7 75/1/7 98/1/7 85/1/7
f 62/23/15 84/36/15 81/34/15 59/19/15
f 99/37/12 78/27/12 77/26/12
f 56/16/10 78/27/10 100/38/10 79/32/10
f 77/26/7 57/17/7 80/33/7 99/37/7
f 60/20/15 82/35/15 101/39/15 80/33/15
f 81/34/17 102/40/17 103/41/17 82/35/17
f 61/21/18 91/42/18 104/43/18 83/22/18
f 83/22/11 104/43/11 105/44/11 84/36/11
f 106/1/14 63/1/14 85/1/14 98/1/14
f 107/1/14 86/1/14 63/1/14 106/1/14
f 86/1/14 108/1/14 87/1/14 65/1/14
f 88/1/11 66/1/11 87/1/11 109/1/11
f 90/1/16 68/1/16 88/1/16 110/1/16
f 111/9/16 89/9/16 90/9/16 112/9/16
f 113/9/16 91/9/16 67/9/16 89/9/16
f 79/9/7 100/9/7 94/9/7 92/9/7
f 94/9/12 114/9/12 115/9/12 73/9/12
f 73/1/12 115/1/12 116/1/12 95/1/12
f 95/1/12 117/1/12 118/1/12 96/1/12
f 74/1/7 96/1/7 118/1/7 119/1/7
f 74/1/12 119/1/12 120/1/12 97/1/12
f 75/1/7 97/1/7 120/1/7 98/1/7
f 84/36/17 105/44/17 102/40/17 81/34/17
f 121/45/12 78/27/12 99/37/12 122/46/12
f 80/33/15 101/39/15 122/46/15 99/37/15
f 82/35/17 103/41/17 123/47/17 101/39/17
f 124/48/16 125/49/16 103/41/16 102/40/16
f 104/43/16 124/48/16 102/40/16 105/44/16
f 119/1/14 106/1/14 98/1/14 120/1/14
f 126/1/14 107/1/14 106/1/14 119/1/14
f 107/1/14 127/1/14 108/1/14 86/1/14
f 108/1/14 128/1/14 109/1/14 87/1/14
f 110/1/16 88/1/16 109/1/16 128/1/16
f 112/1/16 90/1/16 110/1/16 129/1/16
f 130/9/16 111/9/16 112/9/16 131/9/16
f 132/9/16 113/9/16 89/9/16 111/9/16
f 124/48/19 104/43/19 91/42/19 113/50/19
f 100/9/12 133/9/12 114/9/12 94/9/12
f 114/9/12 134/9/12 135/9/12 115/9/12
f 115/1/12 135/1/12 136/1/12 116/1/12
f 95/1/12 116/1/12 137/1/12 117/1/12
f 117/1/14 126/1/14 119/1/14 118/1/14
f 138/51/12 121/45/12 122/46/12 139/52/12
f 133/53/20 100/38/20 78/27/20 121/45/20
f 101/39/17 123/47/17 139/52/17 122/46/17
f 125/49/16 140/54/16 123/47/16 103/41/16
f 125/49/19 124/48/19 113/50/19 132/55/19
f 126/1/14 141/1/14 127/1/14 107/1/14
f 127/1/14 142/1/14 128/1/14 108/1/14
f 129/1/16 110/1/16 128/1/16 142/1/16
f 131/1/16 112/1/16 129/1/16 143/1/16
f 134/9/16 130/9/16 131/9/16 135/9/16
f 144/9/16 132/9/16 111/9/16 130/9/16
f 133/9/12 145/9/12 134/9/12 114/9/12
f 135/1/16 131/1/16 143/1/16 136/1/16
f 116/1/12 136/1/12 146/1/12 137/1/12
f 117/1/14 137/1/14 141/1/14 126/1/14
f 140/54/16 138/51/16 139/52/16 123/47/16
f 121/45/21 138/51/21 145/56/21 133/53/21
f 140/54/19 125/49/19 132/55/19 144/57/19
f 141/1/14 147/1/14 142/1/14 127/1/14
f 143/1/16 129/1/16 142/1/16 147/1/16
f 145/9/16 144/9/16 130/9/16 134/9/16
f 136/1/16 143/1/16 147/1/16 146/1/16
f 137/1/14 146/1/14 147/1/14 141/1/14
f 138/51/19 140/54/19 144/57/19 145/56/19
