# Blender v2.75 (sub 0) OBJ File: 'Asteroid2.blend'
# www.blender.org
mtllib Asteroid2.mtl
o Icosphere
v 0.172988 -0.591641 0.276501
v 0.532274 0.177343 0.779702
v -0.240554 -0.093326 0.993283
v -0.615604 0.055506 0.179603
v -0.059548 0.039621 -0.528969
v 0.698812 -0.099664 0.059751
v 0.052086 0.615097 1.169351
v -0.622003 0.630859 0.878332
v -0.454186 0.883639 -0.072049
v 0.365914 0.695652 -0.202784
v 0.549814 0.668904 0.717867
v 0.081260 0.982006 0.599789
vn 0.403600 -0.625500 0.667700
vn 0.709700 -0.586700 0.389900
vn -0.638000 -0.754000 0.156100
vn -0.546900 -0.728300 -0.412900
vn 0.370200 -0.676300 -0.636900
vn 0.973700 -0.006100 0.227600
vn 0.364300 -0.363600 0.857400
vn -0.857700 -0.400700 0.322100
vn -0.786600 -0.034000 -0.616500
vn 0.612700 -0.004400 -0.790300
vn 0.666100 0.069600 0.742600
vn -0.396800 -0.063700 0.915700
vn -0.979600 0.150500 -0.132900
vn -0.035000 0.463100 -0.885600
vn 0.927400 0.330200 -0.175700
vn 0.383300 0.767400 0.514000
vn -0.206200 0.827400 0.522400
vn -0.384100 0.906900 0.173400
vn 0.172700 0.945500 -0.276100
vn 0.568900 0.817500 -0.089900
usemtl Material.001
s off
f 1//1 2//1 3//1
f 2//2 1//2 6//2
f 1//3 3//3 4//3
f 1//4 4//4 5//4
f 1//5 5//5 6//5
f 2//6 6//6 11//6
f 3//7 2//7 7//7
f 4//8 3//8 8//8
f 5//9 4//9 9//9
f 6//10 5//10 10//10
f 2//11 11//11 7//11
f 3//12 7//12 8//12
f 4//13 8//13 9//13
f 5//14 9//14 10//14
f 6//15 10//15 11//15
f 7//16 11//16 12//16
f 8//17 7//17 12//17
f 9//18 8//18 12//18
f 10//19 9//19 12//19
f 11//20 10//20 12//20
