# Blender v2.75 (sub 0) OBJ File: 'Asteroid1.blend'
# www.blender.org
mtllib Asteroid1.mtl
o Icosphere
v 0.006546 -0.924018 0.312879
v 0.780699 -0.480622 1.335687
v -0.264779 -0.499576 1.176303
v -0.912734 -0.405485 0.142632
v -0.284831 -0.327744 -0.556733
v 0.753236 -0.387388 0.247326
v 0.376454 0.235267 1.611190
v -0.781455 0.284728 0.920970
v -0.727210 0.448562 -0.239912
v 0.306384 0.432703 -0.136078
v 1.001341 0.300037 1.254011
v 0.079006 0.743416 0.721171
vn -0.048900 -0.902400 0.428200
vn 0.576600 -0.812600 -0.084200
vn -0.510300 -0.824400 0.244900
vn -0.380800 -0.817200 -0.432700
vn 0.429400 -0.671300 -0.604200
vn 0.959900 -0.276300 -0.047900
vn -0.129400 -0.419000 0.898700
vn -0.800400 -0.375100 0.467600
vn -0.728700 -0.141800 -0.670000
vn 0.610600 -0.037100 -0.791100
vn 0.499600 -0.050700 0.864800
vn -0.513000 -0.059200 0.856400
vn -0.978600 0.205100 -0.016800
vn 0.097000 0.423000 -0.900900
vn 0.868500 0.282800 -0.407200
vn 0.164400 0.879300 0.447100
vn -0.291900 0.785300 0.545900
vn -0.448900 0.887500 0.104300
vn 0.047500 0.943100 -0.329200
vn 0.505800 0.845300 -0.172200
usemtl Material
s off
f 1//1 2//1 3//1
f 2//2 1//2 6//2
f 1//3 3//3 4//3
f 1//4 4//4 5//4
f 1//5 5//5 6//5
f 2//6 6//6 11//6
f 3//7 2//7 7//7
f 4//8 3//8 8//8
f 5//9 4//9 9//9
f 6//10 5//10 10//10
f 2//11 11//11 7//11
f 3//12 7//12 8//12
f 4//13 8//13 9//13
f 5//14 9//14 10//14
f 6//15 10//15 11//15
f 7//16 11//16 12//16
f 8//17 7//17 12//17
f 9//18 8//18 12//18
f 10//19 9//19 12//19
f 11//20 10//20 12//20
