# Blender v2.75 (sub 0) OBJ File: 'SmallPlanet1.blend'
# www.blender.org
mtllib SmallPlanet1.mtl
o Icosphere
v 0.000000 -1.000000 0.000000
v 0.723607 -0.447220 0.525725
v -0.276388 -0.447220 0.850649
v -0.894426 -0.447216 0.000000
v -0.276388 -0.447220 -0.850649
v 0.723607 -0.447220 -0.525725
v 0.276388 0.447220 0.850649
v -0.723607 0.447220 0.525725
v -0.723607 0.447220 -0.525725
v 0.276388 0.447220 -0.850649
v 0.894426 0.447216 0.000000
v 0.000000 1.000000 0.000000
v -0.162456 -0.850654 0.499995
v 0.425323 -0.850654 0.309011
v 0.262869 -0.525738 0.809012
v 0.850648 -0.525736 0.000000
v 0.425323 -0.850654 -0.309011
v -0.525730 -0.850652 0.000000
v -0.688189 -0.525736 0.499997
v -0.162456 -0.850654 -0.499995
v -0.688189 -0.525736 -0.499997
v 0.262869 -0.525738 -0.809012
v 0.951058 0.000000 0.309013
v 0.951058 0.000000 -0.309013
v 0.000000 0.000000 1.000000
v 0.587786 0.000000 0.809017
v -0.951058 0.000000 0.309013
v -0.587786 0.000000 0.809017
v -0.587786 0.000000 -0.809017
v 0.000000 0.000000 -1.000000
v 0.688189 0.525736 0.499997
v -0.262869 0.525738 0.809012
v -0.850648 0.525736 0.000000
v -0.262869 0.525738 -0.809012
v 0.688189 0.525736 -0.499997
v 0.162456 0.850654 0.499995
v 0.525730 0.850652 0.000000
v -0.425323 0.850654 0.309011
v -0.425323 0.850654 -0.309011
v 0.162456 0.850654 -0.499995
v 1.009266 -0.007014 0.390023
v 0.781816 -0.454233 0.606735
v 0.645994 -0.007014 0.890027
v 0.334596 0.440206 0.931659
v 0.321077 -0.532751 0.890022
v 0.058208 -0.007014 1.081010
v 0.746398 0.518722 0.581007
v 0.364468 -0.430219 -0.867601
v 0.741498 -0.365966 -0.635783
v 0.630353 -0.000000 -0.867605
v 0.149359 -0.000000 -1.023889
v 0.375531 0.365967 -0.901673
v 0.927624 -0.000000 -0.458444
v 0.712515 0.430218 -0.614729
v -0.796309 -0.491115 0.528682
v -1.021428 -0.405406 -0.017092
v -1.083244 0.082755 0.320213
v -1.083244 0.082755 -0.354396
v -0.834970 0.570920 -0.590950
v -0.973641 0.656625 -0.017092
v 0.528751 0.928004 -0.017092
v -0.045112 1.091026 -0.017092
v -0.509375 0.928006 -0.354395
v -0.618975 -0.845778 -0.017092
v -0.796309 -0.491115 -0.562866
v -0.686713 0.082755 -0.900178
v 0.132217 0.928007 0.528681
v -0.509375 1.011291 0.320211
v 0.132217 0.928007 -0.562864
vt 0.792284 0.073534
vt 0.942091 0.073534
vt 0.942091 0.223341
vt 0.940157 0.959688
vt 0.927030 0.959688
vt 0.927030 0.946562
vt 0.940157 0.946562
vt 0.032454 0.934797
vt 0.069109 0.934797
vt 0.069109 0.971453
vn 0.102400 -0.943500 0.315100
vn 0.700200 -0.661700 0.268000
vn -0.268000 -0.943500 0.194700
vn -0.268000 -0.943500 -0.194700
vn 0.102400 -0.943500 -0.315100
vn 0.905000 -0.330400 0.268000
vn 0.024700 -0.330400 0.943500
vn -0.889700 -0.330400 0.315100
vn -0.574600 -0.330400 -0.748800
vn 0.430400 -0.758200 -0.489800
vn -0.643800 0.568800 0.511800
vn -0.306600 -0.125600 0.943500
vn 0.338800 0.427800 0.838000
vn -0.306600 -0.125600 -0.943500
vn 0.905000 0.401000 -0.141900
vn 0.408900 0.661700 0.628400
vn -0.471300 0.661700 0.583100
vn 0.776100 0.488400 -0.398900
vn 0.038500 0.661700 -0.748800
vn 0.724000 0.661700 -0.194700
vn -0.416400 -0.278200 0.865600
vn 0.491100 0.794700 -0.356800
vn 0.408900 0.661700 -0.628400
vn 0.798700 -0.159400 -0.580300
vn -0.187600 0.794700 -0.577300
vn -0.471300 0.661700 -0.583100
vn -0.137500 -0.850400 0.507900
vn -0.290700 -0.568600 0.769600
vn -0.700200 0.661700 0.268000
vn -0.102400 0.943500 0.315100
vn -0.187600 0.794700 0.577300
vn 0.038500 0.661700 0.748800
vn 0.058900 -0.828200 -0.557300
vn 0.491100 0.794700 0.356800
vn 0.724000 0.661700 0.194700
vn 0.889700 0.330400 -0.315100
vn -0.144700 -0.401000 -0.904600
vn 0.908400 -0.393000 -0.142500
vn -0.024700 0.330400 -0.943500
vn -0.303500 0.187600 -0.934200
vn -0.534600 0.330400 -0.777900
vn 0.310000 0.950500 0.021400
vn 0.537800 0.060100 -0.840900
vn -0.905000 0.330400 0.268000
vn -0.534600 0.330400 0.777900
vn -0.303500 0.187600 0.934200
vn -0.024700 0.330400 0.943500
vn 0.574600 0.330400 0.748800
vn 0.707200 0.535400 -0.461800
vn 0.889700 0.330400 0.315100
vn -0.145200 0.393000 -0.908000
vn 0.332800 0.758200 -0.560700
vn 0.024700 -0.330400 -0.943500
vn 0.805100 0.097800 0.585000
vn 0.295700 -0.525400 -0.797800
vn 0.514900 0.283200 0.809100
vn -0.802600 0.125600 0.583100
vn -0.794700 -0.187600 0.577300
vn -0.574600 -0.330400 0.748800
vn 0.080200 -0.986500 -0.143000
vn 0.641100 -0.573300 -0.510300
vn -0.704100 0.455000 0.545300
vn 0.992100 0.125600 0.000000
vn 0.982200 -0.187600 0.000000
vn 0.905000 -0.330400 -0.268000
vn 0.471300 -0.661700 -0.583100
vn 0.187600 -0.794700 -0.577300
vn -0.038500 -0.661700 -0.748800
vn -0.408900 -0.661700 -0.628400
vn -0.491100 -0.794700 -0.356800
vn -0.230400 -0.666400 -0.709100
vn -0.895500 -0.412300 0.167800
vn -0.491100 -0.794700 0.356800
vn -0.408900 -0.661700 0.628400
vn 0.700200 -0.661700 -0.268000
vn 0.607100 -0.794700 0.000000
vn 0.331300 -0.943500 0.000000
vn -0.038500 -0.661700 0.748800
vn 0.187600 -0.794700 0.577300
vn 0.471300 -0.661700 0.583100
vn 0.802600 -0.125600 0.583100
vn 0.794700 0.187600 0.577300
vn 0.306600 0.125600 0.943500
vn 0.303500 -0.187600 0.934200
vn 0.534600 -0.330400 0.777900
vn -0.711900 -0.525300 0.466100
vn 0.711900 0.525300 -0.466100
vn 0.534600 -0.330400 -0.777900
vn 0.802600 -0.125600 -0.583100
vn 0.794700 0.187600 -0.577300
vn 0.574600 0.330400 -0.748800
vn 0.306600 0.125600 -0.943500
vn 0.303500 -0.187600 -0.934200
vn -0.992100 -0.125600 0.000000
vn -0.621300 0.739000 -0.260500
vn 0.268000 0.943500 -0.194700
vn -0.102400 0.943500 -0.315100
vn -0.251200 0.960700 -0.118600
vn -0.556100 0.824800 -0.101800
vn 0.268000 0.943500 0.194700
vn -0.905000 0.330400 -0.268000
vn -0.982200 0.187600 0.000000
vn -0.802600 0.125600 -0.583100
vn -0.794700 -0.187600 -0.577300
vn -0.889700 -0.330400 -0.315100
vn -0.724000 -0.661700 -0.194700
vn -0.724000 -0.661700 0.194700
usemtl Material.001
s off
f 1/1/1 14/2/1 13/3/1
f 2/1/2 14/2/2 16/3/2
f 1/1/3 13/2/3 18/3/3
f 1/1/4 18/2/4 20/3/4
f 1/1/5 20/2/5 17/3/5
f 2/1/6 16/2/6 23/3/6
f 3/1/7 15/2/7 25/3/7
f 4/1/8 19/2/8 27/3/8
f 5/1/9 21/2/9 29/3/9
f 6/4/10 22/5/10 48/6/10 49/7/10
f 7/4/11 25/5/11 46/6/11 44/7/11
f 3/1/12 25/2/12 28/3/12
f 27/4/13 33/5/13 60/6/13 57/7/13
f 5/1/14 29/2/14 30/3/14
f 35/4/15 24/5/15 53/6/15 54/7/15
f 7/1/16 31/2/16 36/3/16
f 8/1/17 32/2/17 38/3/17
f 9/4/18 29/5/18 66/6/18 59/7/18
f 10/1/19 34/2/19 40/3/19
f 11/1/20 35/2/20 37/3/20
f 33/4/21 38/5/21 68/6/21 60/7/21
f 37/1/22 35/2/22 40/3/22
f 35/1/23 10/2/23 40/3/23
f 37/4/24 40/5/24 69/6/24 61/7/24
f 40/1/25 34/2/25 39/3/25
f 34/1/26 9/2/26 39/3/26
f 18/4/27 19/5/27 55/6/27 64/7/27
f 4/4/28 27/5/28 57/6/28 56/7/28
f 33/1/29 8/2/29 38/3/29
f 38/1/30 36/2/30 12/3/30
f 38/1/31 32/2/31 36/3/31
f 32/1/32 7/2/32 36/3/32
f 21/4/33 18/5/33 64/6/33 65/7/33
f 36/1/34 31/2/34 37/3/34
f 31/1/35 11/2/35 37/3/35
f 24/1/36 35/2/36 11/3/36
f 22/4/37 30/5/37 51/6/37 48/7/37
f 24/4/38 6/5/38 49/6/38 53/7/38
f 30/1/39 34/2/39 10/3/39
f 30/1/40 29/2/40 34/3/40
f 29/1/41 9/2/41 34/3/41
f 19/4/42 4/5/42 56/6/42 55/7/42
f 39/4/43 9/5/43 59/6/43 63/7/43
f 27/1/44 8/2/44 33/3/44
f 28/1/45 32/2/45 8/3/45
f 28/1/46 25/2/46 32/3/46
f 25/1/47 7/2/47 32/3/47
f 26/1/48 31/2/48 7/3/48
f 26/4/49 7/5/49 44/6/49 43/7/49
f 23/1/50 11/2/50 31/3/50
f 30/4/51 10/5/51 52/6/51 51/7/51
f 10/4/52 35/5/52 54/6/52 52/7/52
f 22/1/53 5/2/53 30/3/53
f 36/4/54 37/5/54 61/6/54 67/7/54
f 29/4/55 21/5/55 65/6/55 66/7/55
f 38/4/56 12/5/56 62/6/56 68/7/56
f 27/1/57 28/2/57 8/3/57
f 27/1/58 19/2/58 28/3/58
f 19/1/59 3/2/59 28/3/59
f 15/4/60 2/5/60 42/6/60 45/7/60
f 2/4/61 23/5/61 41/6/61 42/7/61
f 31/4/62 26/5/62 43/6/62 47/7/62
f 23/1/63 24/2/63 11/3/63
f 23/1/64 16/2/64 24/3/64
f 16/1/65 6/2/65 24/3/65
f 17/1/66 22/2/66 6/3/66
f 17/1/67 20/2/67 22/3/67
f 20/1/68 5/2/68 22/3/68
f 20/1/69 21/2/69 5/3/69
f 20/1/70 18/2/70 21/3/70
f 40/4/71 39/5/71 63/6/71 69/7/71
f 12/4/72 36/5/72 67/6/72 62/7/72
f 18/1/73 13/2/73 19/3/73
f 13/1/74 3/2/74 19/3/74
f 16/1/75 17/2/75 6/3/75
f 16/1/76 14/2/76 17/3/76
f 14/1/77 1/2/77 17/3/77
f 13/1/78 15/2/78 3/3/78
f 13/1/79 14/2/79 15/3/79
f 14/1/80 2/2/80 15/3/80
f 42/8/81 41/9/81 43/10/81
f 43/8/82 41/9/82 47/10/82
f 46/8/83 43/9/83 44/10/83
f 46/8/84 45/9/84 43/10/84
f 45/8/85 42/9/85 43/10/85
f 25/4/86 15/5/86 45/6/86 46/7/86
f 23/4/87 31/5/87 47/6/87 41/7/87
f 49/8/88 48/9/88 50/10/88
f 49/8/89 50/9/89 53/10/89
f 53/8/90 50/9/90 54/10/90
f 50/8/91 52/9/91 54/10/91
f 50/8/92 51/9/92 52/10/92
f 50/8/93 48/9/93 51/10/93
f 56/8/94 57/9/94 58/10/94
f 59/8/95 60/9/95 63/10/95
f 61/8/96 69/9/96 62/10/96
f 69/8/97 63/9/97 62/10/97
f 63/8/98 68/9/98 62/10/98
f 63/8/99 60/9/99 68/10/99
f 67/8/100 61/9/100 62/10/100
f 58/8/101 60/9/101 59/10/101
f 58/8/102 57/9/102 60/10/102
f 66/8/103 58/9/103 59/10/103
f 66/8/104 65/9/104 58/10/104
f 65/8/105 56/9/105 58/10/105
f 64/8/106 56/9/106 65/10/106
f 64/8/107 55/9/107 56/10/107
