# Blender v2.75 (sub 0) OBJ File: 'Igloo.blend'
# www.blender.org
mtllib Igloo.mtl
o Cylinder.000_Cylinder.005
v -0.058884 0.000316 -0.273962
v -0.269746 -0.000000 -0.269746
v -0.269746 0.158553 -0.218229
v -0.043925 0.158553 -0.218229
v -0.094382 -0.000000 -0.222070
v -0.269746 -0.000000 -0.222070
v -0.269746 0.130530 -0.179659
v -0.269746 0.256544 -0.083356
v -0.047055 0.256544 -0.083356
v -0.063007 0.130530 -0.179658
v -0.269746 0.211201 -0.068623
v -0.269746 0.256544 0.083356
v -0.050077 0.256544 0.083356
v -0.050856 0.256544 0.080373
v -0.050559 0.256544 -0.069826
v -0.058462 0.211201 -0.068623
v -0.269746 0.158553 0.218229
v -0.046152 0.158553 0.218229
v -0.058733 0.211201 0.068623
v -0.269746 0.211201 0.068623
v -0.269746 0.130530 0.179659
v -0.269746 -0.000000 0.269746
v -0.066895 -0.000000 0.269746
v -0.072404 0.046497 0.254638
v -0.065156 0.130530 0.179659
v -0.269746 -0.000000 0.222070
v -0.095737 -0.000000 0.222070
v 0.749979 0.336306 0.653810
v 1.036676 0.390107 0.392450
v 0.646576 0.622987 0.316000
v 0.376239 0.382657 0.622148
v 0.967386 -0.008572 0.599770
v 0.842840 0.632825 0.008420
v 0.334673 0.623202 0.197290
v 0.559812 -0.010313 0.735866
v 1.220631 -0.005652 0.230668
v 1.182540 0.350841 0.003664
v 0.058439 0.336977 0.400903
v 0.153152 -0.010929 0.591839
v 0.652520 0.641221 -0.299482
v 1.042738 0.408700 -0.385078
v 0.337873 0.633081 -0.176173
v -0.027664 0.388816 0.007510
v 1.222990 0.001745 -0.229971
v 0.758987 0.363871 -0.649419
v 0.384578 0.408469 -0.613838
v 0.973206 0.008543 -0.600809
v 0.062990 0.350909 -0.390031
v 0.566236 0.008459 -0.736974
v 0.157690 0.002242 -0.590555
v 0.042914 0.002379 -0.187740
v 0.061655 0.134938 -0.181916
v 0.056108 0.216863 -0.057844
v 0.055860 0.216863 0.067731
v 0.059793 0.134938 0.182986
v 0.016929 -0.005180 0.190045
v 0.725401 0.283549 0.547154
v 0.965094 0.328529 0.328643
v 0.632283 0.558774 0.246607
v 0.412934 0.322301 0.520683
v 0.907164 -0.004788 0.501974
v 0.784599 0.566410 0.007901
v 0.390222 0.558941 0.154479
v 0.566411 -0.006243 0.615758
v 1.118891 -0.002346 0.193385
v 1.087044 0.295701 0.003598
v 0.147236 0.284110 0.335711
v 0.226421 -0.006758 0.495344
v 0.636896 0.572925 -0.231053
v 0.970163 0.344074 -0.321410
v 0.392706 0.566608 -0.135357
v 0.075250 0.327450 0.006814
v 1.120863 0.003838 -0.191734
v 0.732932 0.306595 -0.542414
v 0.419906 0.343881 -0.512666
v 0.912030 0.009522 -0.501773
v 0.151041 0.295758 -0.325551
v 0.571782 0.009451 -0.615614
v 0.230216 0.004253 -0.493200
vn -0.923600 0.273200 -0.268800
vn 0.000000 0.809000 -0.587800
vn -0.000000 -0.309000 0.951100
vn 0.000000 1.000000 0.000000
vn 0.014400 -0.822400 0.568800
vn -0.000000 0.809000 0.587800
vn 0.000000 -1.000000 0.000000
vn -1.000000 0.000000 0.000000
vn 0.000000 0.309000 0.951100
vn 0.040000 -0.811700 -0.582800
vn 0.000000 -0.309000 -0.951100
vn 0.350200 0.764300 0.541500
vn 0.041100 0.768000 0.639200
vn 0.619000 0.275000 0.735700
vn 0.442100 0.842000 0.309000
vn -0.188900 0.846500 0.497800
vn -0.050000 0.256000 0.965400
vn 0.316100 0.050800 0.947400
vn 0.814700 0.149700 0.560200
vn 0.631800 0.758400 0.160400
vn -0.440000 0.762300 0.474600
vn -0.331800 0.115900 0.936200
vn 0.904300 0.293800 0.309600
vn 0.633600 0.765200 -0.114000
vn -0.611400 0.756100 0.233500
vn -0.576200 0.267100 0.772500
vn 0.993800 0.110600 0.006900
vn 0.452600 0.854000 -0.256500
vn 0.912100 0.295700 -0.284000
vn -0.549500 0.835300 0.017400
vn -0.924500 0.295000 0.241200
vn 0.353800 0.782400 -0.512500
vn -0.204200 0.861900 -0.464100
vn 0.820800 0.153900 -0.550100
vn -0.614500 0.759700 -0.212600
vn -0.985200 0.171700 -0.001900
vn 0.630100 0.280800 -0.724000
vn 0.035600 0.788400 -0.614100
vn -0.448700 0.774700 -0.445500
vn 0.316700 0.061400 -0.946500
vn -0.059300 0.269000 -0.961300
vn -0.581600 0.281100 -0.763400
vn -0.336100 0.134300 -0.932200
vn -0.372900 -0.739000 -0.561200
vn -0.035400 -0.742500 -0.668900
vn -0.619000 -0.275000 -0.735700
vn -0.479900 -0.812000 -0.332200
vn 0.205000 -0.816200 -0.540200
vn 0.050000 -0.256000 -0.965400
vn -0.316100 -0.050800 -0.947400
vn -0.814700 -0.149700 -0.560200
vn 0.764000 0.644700 0.023600
vn -0.658200 -0.732700 -0.173000
vn 0.260800 0.681200 -0.684100
vn 0.455700 -0.734500 -0.502900
vn 0.331800 -0.115900 -0.936200
vn -0.904300 -0.293800 -0.309600
vn -0.682100 0.601400 -0.416000
vn -0.660500 -0.739900 0.127400
vn -0.678500 0.591600 0.435500
vn 0.645000 -0.726500 -0.236900
vn 0.576200 -0.267100 -0.772500
vn -0.993800 -0.110600 -0.006900
vn -0.490500 -0.825000 0.280700
vn 0.261800 0.652600 0.711100
vn -0.912100 -0.295700 0.284000
vn 0.597000 -0.802100 -0.016100
vn 0.000000 -0.809000 -0.587800
vn -0.376300 -0.758200 0.532500
vn 0.220500 -0.832900 0.507600
vn -0.820800 -0.153900 0.550100
vn 0.647600 -0.730400 0.217300
vn 0.985200 -0.171700 0.001900
vn -0.630100 -0.280800 0.724000
vn -0.029800 -0.764100 0.644400
vn 0.464300 -0.747700 0.474800
vn -0.316700 -0.061400 0.946500
vn 0.059300 -0.269000 0.961300
vn 0.581600 -0.281100 0.763400
vn 0.336100 -0.134300 0.932200
vn 0.017900 -0.999800 0.007400
vn -0.002600 -1.000000 0.008300
vn -0.021800 -0.999800 -0.003600
vn -0.026500 -0.999500 -0.016200
vn -0.023600 -0.999400 -0.024100
vn -0.007200 -0.999400 -0.034300
vn 0.013200 -0.999400 -0.033100
vn 0.821300 -0.085900 -0.564000
vn -0.119100 -0.147200 -0.981900
vn -0.009400 0.321100 -0.947000
vn -0.012400 -0.999900 -0.010100
vn -0.822000 0.077500 0.564200
vn 0.924500 -0.295000 -0.241200
vn 0.049400 -0.998800 0.000100
vn -0.000000 -0.809000 0.587800
vn 0.923300 -0.264700 0.278200
vn 0.850700 -0.068700 0.521200
vn 0.000800 -1.000000 -0.002900
vn -0.821500 0.099700 -0.561400
vn 0.017700 -0.999800 0.005400
vn 0.016100 -0.999900 0.004900
vn -0.116000 -0.157700 0.980700
usemtl Material.001
s off
f 15//1 43//1 48//1 1//1 4//1 9//1
f 4//2 3//2 8//2 9//2
f 10//3 7//3 6//3 5//3
f 9//4 8//4 12//4 13//4 14//4 15//4
f 52//5 53//5 16//5 10//5
f 13//6 12//6 17//6 18//6
f 19//7 20//7 11//7 16//7
f 21//8 26//8 22//8 17//8 12//8 8//8 3//8 2//8 6//8 7//8 11//8 20//8
f 18//9 17//9 22//9 23//9 24//9
f 54//10 55//10 25//10 19//10
f 27//11 26//11 21//11 25//11
f 28//12 29//12 30//12
f 31//13 28//13 30//13
f 32//14 29//14 28//14
f 30//15 29//15 33//15
f 34//16 31//16 30//16
f 35//17 28//17 31//17
f 35//18 32//18 28//18
f 32//19 36//19 29//19
f 29//20 37//20 33//20
f 38//21 31//21 34//21
f 39//22 35//22 31//22
f 36//23 37//23 29//23
f 37//24 41//24 33//24
f 43//25 38//25 34//25
f 39//26 31//26 38//26
f 36//27 44//27 37//27
f 33//28 41//28 40//28
f 44//29 41//29 37//29
f 42//30 43//30 34//30
f 24//31 38//31 43//31 14//31 13//31 18//31
f 41//32 45//32 40//32
f 40//33 46//33 42//33
f 44//34 47//34 41//34
f 48//35 43//35 42//35
f 14//36 43//36 15//36
f 47//37 45//37 41//37
f 45//38 46//38 40//38
f 46//39 48//39 42//39
f 47//40 49//40 45//40
f 49//41 46//41 45//41
f 50//42 48//42 46//42
f 49//43 50//43 46//43
f 57//44 59//44 58//44
f 60//45 59//45 57//45
f 61//46 57//46 58//46
f 59//47 62//47 58//47
f 63//48 59//48 60//48
f 64//49 60//49 57//49
f 64//50 57//50 61//50
f 61//51 58//51 65//51
f 34//52 63//52 71//52 42//52
f 58//53 62//53 66//53
f 34//54 30//54 59//54 63//54
f 67//55 63//55 60//55
f 68//56 60//56 64//56
f 65//57 58//57 66//57
f 30//58 33//58 62//58 59//58
f 66//59 62//59 70//59
f 40//60 69//60 62//60 33//60
f 72//61 63//61 67//61
f 68//62 67//62 60//62
f 65//63 66//63 73//63
f 62//64 69//64 70//64
f 42//65 71//65 69//65 40//65
f 73//66 66//66 70//66
f 71//67 63//67 72//67
f 25//68 21//68 20//68 19//68
f 70//69 69//69 74//69
f 69//70 71//70 75//70
f 73//71 70//71 76//71
f 77//72 71//72 72//72
f 54//73 53//73 72//73
f 76//74 70//74 74//74
f 74//75 69//75 75//75
f 75//76 71//76 77//76
f 76//77 74//77 78//77
f 78//78 74//78 75//78
f 79//79 75//79 77//79
f 78//80 75//80 79//80
f 50//81 49//81 78//81 79//81
f 49//82 47//82 76//82 78//82
f 47//83 44//83 73//83 76//83
f 44//84 36//84 65//84 73//84
f 36//85 32//85 61//85 65//85
f 32//86 35//86 64//86 61//86
f 35//87 39//87 68//87 64//87
f 56//88 67//88 68//88
f 23//7 22//7 26//7 27//7
f 25//89 55//89 56//89 27//89
f 1//90 2//90 3//90 4//90
f 39//91 27//91 56//91 68//91
f 27//92 39//92 38//92 24//92 23//92
f 56//93 55//93 54//93 72//93 67//93
f 16//94 53//94 54//94 19//94
f 16//95 11//95 7//95 10//95
f 53//96 52//96 51//96 77//96 72//96
f 79//97 77//97 51//97
f 5//98 6//98 2//98 1//98
f 50//99 1//99 48//99
f 50//100 79//100 51//100 1//100
f 1//101 51//101 5//101
f 5//102 51//102 52//102 10//102
