# Blender v2.75 (sub 0) OBJ File: 'Terrain3.blend'
# www.blender.org
mtllib Terrain3.mtl
o Plane.003
v -1.893046 0.000000 1.893046
v 1.893046 0.000000 1.893046
v -1.893046 0.000000 -1.893046
v 1.893046 0.000000 -1.893046
v -1.893046 0.000000 0.000000
v 0.000000 0.000000 1.893046
v 1.893046 0.000000 0.000000
v 0.000000 0.000000 -1.893046
v 0.000000 3.262708 -0.276628
v -1.893046 0.000000 0.946523
v 0.946523 0.000000 1.893046
v 1.893046 0.000000 -0.946523
v -0.946523 0.000000 -1.893046
v -1.893046 0.000000 -0.946523
v -0.946523 0.000000 1.893046
v 1.893046 0.000000 0.946523
v 0.946523 0.000000 -1.893046
v 0.000000 0.519360 -1.099944
v 0.000000 0.656346 1.109415
v -1.118321 0.482418 -0.047558
v 1.118321 0.482418 -0.047558
v 1.014238 0.707729 1.014362
v -1.014238 0.707729 1.014362
v -0.989128 0.130280 -0.961881
v 0.989128 0.130280 -0.961881
v -1.893046 0.000000 1.419784
v 1.419784 0.000000 1.893046
v 1.893046 0.000000 -1.419784
v -1.419784 0.000000 -1.893046
v -1.893046 0.000000 -0.473261
v -0.473261 0.000000 1.893046
v 1.893046 0.000000 0.473261
v 0.473261 0.000000 -1.893046
v 0.000000 0.072844 -1.441597
v 0.000000 1.608019 0.558456
v -1.422341 0.004613 -0.000621
v 0.673669 1.853878 -0.161133
v -1.893046 0.000000 0.473261
v 0.473261 0.000000 1.893046
v 1.893046 0.000000 -0.473261
v -0.473261 0.000000 -1.893046
v -1.893046 0.000000 -1.419784
v -1.419784 0.000000 1.893046
v 1.893046 0.000000 1.419784
v 1.419784 0.000000 -1.893046
v 0.000000 2.100523 -0.701032
v 0.000000 0.005809 1.420532
v -0.673669 1.853878 -0.161133
v 1.422341 0.004613 -0.000621
v 1.077059 0.928486 0.555232
v 0.947761 0.013551 1.421406
v 0.495220 0.719109 1.071988
v 1.421464 0.015018 0.948021
v -1.077059 0.928486 0.555232
v -0.947761 0.013551 1.421406
v -1.421464 0.015018 0.948021
v -0.495220 0.719109 1.071988
v -0.946523 0.000000 -1.419784
v -1.255990 0.607337 -0.553287
v -1.422090 0.004213 -0.947166
v -0.728417 0.806204 -1.095733
v 0.946523 0.000000 -1.419784
v 1.255990 0.607337 -0.553287
v 0.728417 0.806204 -1.095733
v 1.422090 0.004213 -0.947166
v 1.433670 0.025185 -0.476882
v 0.711709 1.917583 -0.601253
v 0.473583 0.036737 -1.430781
v -0.711709 1.917583 -0.601253
v -1.433670 0.025185 -0.476882
v -1.419784 0.000000 -1.419784
v -0.474207 0.038062 1.423588
v -1.419784 0.000000 1.419784
v -1.419904 0.001024 0.473357
v 1.419784 0.000000 1.419784
v 0.474207 0.038062 1.423588
v 0.585639 1.094294 0.734420
v 1.419904 0.001024 0.473357
v -0.585639 1.094294 0.734420
v -0.473583 0.036737 -1.430781
v 1.419784 0.000000 -1.419784
v 0.000000 1.928684 0.396623
vn 0.000000 1.000000 0.000000
vn -0.039200 0.992100 -0.119000
vn 0.006000 1.000000 0.003800
vn 0.843700 0.506100 0.178700
vn 0.070000 0.478400 0.875300
vn 0.015900 0.999700 0.015900
vn -0.898800 0.417100 -0.134900
vn -0.548200 0.629500 0.550600
vn 0.011900 0.445700 0.895100
vn -0.682000 0.522200 -0.512000
vn -0.045700 0.314800 -0.948000
vn 0.039200 0.998500 -0.039200
vn 0.738400 0.241600 -0.629600
vn 0.031700 0.999200 -0.022600
vn 0.682000 0.522200 -0.512000
vn 0.883700 0.424500 0.197000
vn 0.031900 0.999200 0.022000
vn 0.045700 0.314800 -0.948000
vn 0.906600 0.348600 0.237900
vn 0.039200 0.992100 -0.119000
vn -0.093300 0.499000 -0.861600
vn 0.561400 0.434900 -0.704000
vn -0.738400 0.241600 -0.629600
vn -0.906600 0.348600 0.237900
vn -0.031700 0.999200 -0.022600
vn -0.031900 0.999200 0.022000
vn -0.883700 0.424500 0.197000
vn -0.004500 1.000000 -0.004500
vn -0.138600 0.979200 -0.148200
vn -0.070000 0.478400 0.875300
vn -0.026000 0.998200 0.054800
vn 0.034100 0.998300 0.046500
vn -0.015900 0.999700 0.015900
vn -0.014400 0.999800 0.014400
vn -0.006000 1.000000 0.003800
vn -0.017000 0.999700 -0.014800
vn -0.902500 0.404200 0.148700
vn 0.548200 0.629500 0.550600
vn 0.014400 0.999800 0.014400
vn -0.011900 0.445700 0.895100
vn -0.034100 0.998300 0.046500
vn 0.026000 0.998200 0.054800
vn 0.121800 0.546500 0.828500
vn 0.273300 0.744300 0.609300
vn 0.898800 0.417100 -0.134900
vn 0.902500 0.404200 0.148700
vn 0.017000 0.999700 -0.014800
vn -0.843700 0.506100 0.178700
vn -0.273300 0.744300 0.609300
vn -0.121800 0.546500 0.828500
vn -0.039200 0.998500 -0.039200
vn -0.561400 0.434900 -0.704000
vn 0.093300 0.499000 -0.861600
vn 0.138600 0.979200 -0.148200
vn 0.004500 1.000000 -0.004500
vn 0.474800 0.595600 0.648000
vn -0.474800 0.595600 0.648000
vn -0.619500 0.353700 0.700800
vn 0.214700 0.335000 -0.917400
vn -0.888800 0.436500 0.140000
vn 0.619500 0.353700 0.700800
vn -0.214700 0.335000 -0.917400
vn 0.888800 0.436500 0.140000
usemtl Material.008
s off
f 81//1 28//1 4//1 45//1
f 80//2 34//2 8//2 41//2
f 78//3 32//3 7//3 49//3
f 77//4 50//4 21//4 37//4
f 76//5 51//5 22//5 52//5
f 75//6 44//6 16//6 53//6
f 74//7 54//7 20//7 36//7
f 73//8 55//8 23//8 56//8
f 72//9 47//9 19//9 57//9
f 71//1 58//1 13//1 29//1
f 70//10 59//10 24//10 60//10
f 69//11 46//11 18//11 61//11
f 68//12 62//12 17//12 33//12
f 67//13 63//13 25//13 64//13
f 66//14 40//14 12//14 65//14
f 63//15 66//15 65//15 25//15
f 21//16 49//16 66//16 63//16
f 49//17 7//17 40//17 66//17
f 46//18 67//18 64//18 18//18
f 37//19 21//19 63//19 67//19
f 34//20 68//20 33//20 8//20
f 18//21 64//21 68//21 34//21
f 64//22 25//22 62//22 68//22
f 59//23 69//23 61//23 24//23
f 20//24 48//24 69//24 59//24
f 30//25 70//25 60//25 14//25
f 5//26 36//26 70//26 30//26
f 36//27 20//27 59//27 70//27
f 42//1 71//1 29//1 3//1
f 14//28 60//28 71//28 42//28
f 60//29 24//29 58//29 71//29
f 55//30 72//30 57//30 23//30
f 15//31 31//31 72//31 55//31
f 31//32 6//32 47//32 72//32
f 26//33 73//33 56//33 10//33
f 1//1 43//1 73//1 26//1
f 43//34 15//34 55//34 73//34
f 38//35 74//35 36//35 5//35
f 10//36 56//36 74//36 38//36
f 56//37 23//37 54//37 74//37
f 51//38 75//38 53//38 22//38
f 11//39 27//39 75//39 51//39
f 27//1 2//1 44//1 75//1
f 47//40 76//40 52//40 19//40
f 6//41 39//41 76//41 47//41
f 39//42 11//42 51//42 76//42
f 19//43 52//43 77//43 35//43
f 52//44 22//44 50//44 77//44
f 50//45 78//45 49//45 21//45
f 22//46 53//46 78//46 50//46
f 53//47 16//47 32//47 78//47
f 54//48 79//48 48//48 20//48
f 23//49 57//49 79//49 54//49
f 57//50 19//50 35//50 79//50
f 58//51 80//51 41//51 13//51
f 24//52 61//52 80//52 58//52
f 61//53 18//53 34//53 80//53
f 62//1 81//1 45//1 17//1
f 25//54 65//54 81//54 62//54
f 65//55 12//55 28//55 81//55
f 35//56 77//56 37//56 82//56
f 79//57 35//57 82//57 48//57
usemtl Material.009
f 48//58 82//58 9//58
f 46//59 9//59 67//59
f 48//60 9//60 69//60
f 82//61 37//61 9//61
f 9//62 46//62 69//62
f 9//63 37//63 67//63
