# Blender v2.75 (sub 0) OBJ File: 'Terrain.blend'
# www.blender.org
mtllib Terrain.mtl
o Plane
v -0.000000 2.944013 -0.217424
v -1.888955 0.017201 -0.524797
v 0.234525 0.016871 -1.887662
v -0.000000 0.842328 1.387051
v -1.475427 0.187047 0.055927
v 0.773998 0.570907 1.318146
v 1.883383 -0.006228 -1.883192
v 0.618813 2.366296 -0.222444
v -1.881520 -0.004502 1.879552
v 1.881221 -0.005744 1.879337
v -1.883001 -0.015256 -1.881417
v -0.000000 0.672008 -1.124129
v -0.776857 0.221921 1.532069
v -0.618811 2.366297 -0.222443
v 1.188218 0.634588 0.452489
v -1.188218 0.634586 0.452487
v -0.773998 0.570907 1.318146
v -0.484911 0.354839 -1.228388
v 0.484911 0.354838 -1.228388
v 1.205291 0.057683 -0.896048
v -1.205291 0.057683 -0.896047
v -1.438305 0.048266 1.323131
v 1.291214 0.085371 1.496710
v 1.475427 0.187047 0.055927
v -0.822322 0.887651 -0.578410
v 0.822321 0.887653 -0.578412
v 1.888955 0.017204 -0.524814
v 0.000000 2.662318 0.375231
v 0.838454 2.023218 0.252422
v -0.838454 2.023218 0.252422
v 0.622657 2.338361 -0.229169
v -0.000000 2.378872 -0.442959
v 0.609058 2.339588 -0.236658
v 0.630367 2.336902 -0.218690
v -0.000000 2.002817 0.741879
vn 0.899100 0.275500 0.340300
vn -0.376700 0.486400 0.788400
vn 0.521400 0.662600 -0.537700
vn 0.524500 0.504500 -0.685800
vn 0.817800 0.491800 -0.298900
vn 0.285200 0.663400 -0.691800
vn 0.483200 0.267200 -0.833700
vn -0.320600 0.351100 -0.879700
vn -0.152900 0.972500 -0.175500
vn 0.017700 0.994000 0.108300
vn -0.581500 0.742300 0.332900
vn 0.269600 0.572000 0.774700
vn 0.067500 0.989000 0.131400
vn 0.340200 0.911800 0.229900
vn 0.886000 0.440700 0.144400
vn -0.922900 0.339600 -0.181500
vn -0.298300 0.677200 -0.672700
vn 0.068600 0.997500 -0.017500
vn 0.797200 0.242800 -0.552700
vn -0.624400 0.263200 0.735400
vn 0.391900 0.919900 0.010000
vn -0.014800 0.883100 -0.468900
vn 0.922900 0.339600 -0.181500
vn -0.251300 0.507300 0.824300
vn -0.285200 0.663400 -0.691800
vn 0.152900 0.972500 -0.175500
vn 0.320600 0.351100 -0.879700
vn 0.380300 0.756400 -0.532200
vn -0.524500 0.504500 -0.685800
vn -0.483200 0.267200 -0.833700
vn -0.817800 0.491800 -0.298900
vn -0.072200 0.997100 -0.024200
vn -0.226700 0.969900 -0.088600
vn -0.869300 0.488000 0.078900
vn 0.029500 0.192400 0.980900
vn 0.000300 0.837400 0.546600
vn 0.581700 0.742100 0.332900
vn 0.099500 0.991600 0.082700
vn -0.899100 0.275500 0.340300
vn -0.340200 0.911800 0.229900
vn -0.317500 0.936500 0.149100
vn 0.014100 0.998400 -0.054900
vn -0.797200 0.242800 -0.552700
vn -0.391300 0.920200 0.009500
vn 0.624400 0.263200 0.735400
vn -0.446100 0.434900 0.782200
vn 0.446100 0.434900 0.782200
vn -0.646200 0.689300 0.327600
vn 0.609200 0.749300 0.259600
vn -0.609200 0.749300 0.259600
vn 0.646200 0.689300 0.327600
usemtl Material.002
s off
f 29//1 15//1 24//1
f 22//2 13//2 17//2
f 19//3 20//3 3//3
f 26//4 20//4 19//4
f 24//5 20//5 26//5
f 26//6 19//6 12//6
f 31//7 26//7 12//7 33//7
f 12//8 14//8 32//8
f 5//9 21//9 2//9
f 9//10 22//10 5//10
f 22//11 17//11 16//11
f 23//12 6//12 4//12
f 10//13 23//13 13//13
f 6//14 15//14 4//14
f 23//15 24//15 15//15
f 30//16 14//16 5//16
f 18//17 12//17 3//17
f 20//18 27//18 7//18
f 24//19 26//19 31//19 34//19
f 4//20 30//20 16//20
f 10//21 27//21 24//21
f 11//22 18//22 3//22
f 8//23 29//23 24//23 34//23
f 17//24 13//24 4//24
f 18//25 25//25 12//25
f 20//26 24//26 27//26
f 32//27 33//27 12//27
f 12//28 19//28 3//28
f 21//29 25//29 18//29
f 25//30 14//30 12//30
f 21//31 5//31 25//31
f 2//32 21//32 11//32
f 22//33 9//33 13//33
f 5//34 22//34 16//34
f 13//35 23//35 4//35
f 9//36 10//36 13//36
f 6//37 23//37 15//37
f 23//38 10//38 24//38
f 16//39 30//39 5//39
f 16//40 17//40 4//40
f 21//41 18//41 11//41
f 3//42 20//42 7//42
f 25//43 5//43 14//43
f 2//44 9//44 5//44
f 29//45 4//45 15//45
f 34//19 31//19 8//19
f 8//7 31//7 33//7
f 4//46 35//46 30//46
f 35//47 4//47 29//47
usemtl Material.003
f 28//48 1//48 14//48
f 28//49 29//49 8//49
f 35//46 28//46 30//46
f 30//50 28//50 14//50
f 1//51 28//51 8//51
f 28//47 35//47 29//47
f 1//27 8//27 33//27 32//27
f 14//8 1//8 32//8
