# Blender v2.75 (sub 0) OBJ File: 'CroissantShip.blend'
# www.blender.org
mtllib CroissantShip.mtl
o Cube_Cube.001
v -1.953386 0.241651 0.000000
v -1.953386 1.129607 0.000000
v -1.813354 0.288499 -0.362825
v -1.813354 1.082759 -0.362825
v 0.700769 0.058743 0.000000
v 0.700769 1.312515 0.000000
v 0.560738 0.124891 -0.560738
v 0.560738 1.246367 -0.560738
v -1.973250 1.242655 -0.798520
v -1.973250 0.128603 -0.798520
v 0.786507 1.472136 -1.175929
v 0.786507 -0.100877 -1.175929
v -1.766172 1.035576 -1.777938
v -1.766172 0.335682 -1.777938
v 0.494117 1.179746 -2.558842
v 0.494117 0.191512 -2.558842
v 2.163455 1.162980 -0.766129
v 2.163455 0.208278 -0.766129
v 1.985996 0.985521 -1.605454
v 1.985996 0.385737 -1.605454
v 3.010817 0.872102 -0.175620
v 3.010817 0.499157 -0.175620
v 2.941494 0.802779 -0.503494
v 2.941494 0.568479 -0.503494
v -1.945682 1.094341 -0.928910
v -1.945682 0.276917 -0.928910
v -1.793740 0.942399 -1.647547
v -1.793740 0.428859 -1.647547
v -1.711506 1.094341 -0.879398
v -1.711506 0.276917 -0.879398
v -1.559564 0.942399 -1.598036
v -1.559564 0.428859 -1.598036
v -0.626308 1.164563 -0.461781
v -0.626308 0.206695 -0.461781
v -0.626308 1.221061 0.000000
v -0.626308 0.150197 0.000000
v -0.593372 1.564958 -1.144766
v -0.593372 0.013863 -0.987225
v -0.636027 1.315224 -2.325931
v -0.636027 0.263597 -2.168390
v -1.813354 0.288499 0.362825
v -1.813354 1.082759 0.362825
v 0.560738 0.124891 0.560738
v 0.560738 1.246367 0.560738
v -1.973250 1.242655 0.798520
v -1.973250 0.128603 0.798520
v 0.786507 1.472136 1.175929
v 0.786507 -0.100877 1.175929
v -1.766172 1.035576 1.777938
v -1.766172 0.335682 1.777938
v 0.494117 1.179746 2.558842
v 0.494117 0.191512 2.558842
v 2.163455 1.162980 0.766129
v 2.163455 0.208278 0.766129
v 1.985996 0.985521 1.605454
v 1.985996 0.385737 1.605454
v 3.010817 0.872102 0.175620
v 3.010817 0.499157 0.175620
v 2.941494 0.802779 0.503494
v 2.941494 0.568479 0.503494
v -1.945682 1.094341 0.928910
v -1.945682 0.276917 0.928910
v -1.793740 0.942399 1.647547
v -1.793740 0.428859 1.647547
v -1.711506 1.094341 0.879398
v -1.711506 0.276917 0.879398
v -1.559564 0.942399 1.598036
v -1.559564 0.428859 1.598036
v -0.626308 1.164563 0.461781
v -0.626308 0.206695 0.461781
v -0.593372 1.564958 1.144766
v -0.593372 0.013863 0.987225
v -0.636027 1.315224 2.325931
v -0.636027 0.263597 2.168390
vt 0.310840 0.606001
vt 0.313684 0.607200
vt 0.313813 0.612355
vt 0.310840 0.613440
vt 0.319048 0.617857
vt 0.316066 0.611674
vt 0.320067 0.614480
vt 0.739105 0.659826
vt 0.744949 0.656292
vt 0.744683 0.671461
vt 0.739537 0.667362
vt 0.106743 0.662489
vt 0.000121 0.655142
vt 0.000121 0.583800
vt 0.106743 0.576452
vt 0.317887 0.622400
vt 0.327185 0.614655
vt 0.332331 0.618754
vt 0.709811 0.575793
vt 0.712316 0.595842
vt 0.685589 0.616688
vt 0.673390 0.611545
vt 0.318441 0.610881
vt 0.320387 0.611087
vt 0.319915 0.602340
vt 0.326753 0.607120
vt 0.323464 0.608588
vt 0.320596 0.606737
vt 0.316382 0.608495
vt 0.323594 0.612228
vt 0.320551 0.609555
vt 0.321751 0.609935
vt 0.321819 0.610552
vt 0.322713 0.610219
vt 0.322516 0.610171
vt 0.318604 0.609528
vt 0.318226 0.610733
vt 0.318309 0.609649
vt 0.322674 0.610338
vt 0.322491 0.610341
vt 0.316508 0.611186
vt 0.316671 0.608963
vt 0.317175 0.609574
vt 0.316951 0.610550
vt 0.317940 0.609908
vt 0.317818 0.610453
vt 0.766709 0.601181
vt 0.741646 0.616341
vt 0.213365 0.669837
vt 0.213365 0.569105
vt 0.332607 0.613939
vt 0.332737 0.606501
vt 0.335691 0.607638
vt 0.335471 0.612790
vt 0.341022 0.602229
vt 0.341981 0.605623
vt 0.337932 0.608358
vt 0.859877 0.657585
vt 0.802544 0.681974
vt 0.805399 0.661972
vt 0.835083 0.641989
vt 0.342242 0.609021
vt 0.340292 0.609193
vt 0.341617 0.617758
vt 0.342375 0.613373
vt 0.345275 0.611573
vt 0.348537 0.613099
vt 0.338192 0.611543
vt 0.345468 0.607937
vt 0.349101 0.605572
vt 0.342379 0.610555
vt 0.343664 0.609580
vt 0.343586 0.610197
vt 0.344355 0.609974
vt 0.344553 0.609929
vt 0.340432 0.610548
vt 0.340139 0.610422
vt 0.340075 0.609337
vt 0.344517 0.609858
vt 0.344515 0.609809
vt 0.344333 0.609804
vt 0.338365 0.608854
vt 0.338797 0.609498
vt 0.339004 0.610477
vt 0.338489 0.611079
vt 0.339662 0.609610
vt 0.339775 0.610157
vt 0.339941 0.597666
vt 0.354318 0.601564
vt 0.766754 0.645589
vt 0.779041 0.640661
vt 0.760890 0.665806
vt 0.761453 0.658279
vt 0.766670 0.654270
vt 0.766670 0.669442
vn -0.932900 0.000000 -0.360100
vn -0.032700 -0.936900 0.348100
vn 0.970200 0.000000 -0.242300
vn 0.000000 0.000000 1.000000
vn -0.072600 -0.991400 -0.109000
vn -0.073400 0.987900 -0.136300
vn -0.121600 -0.969200 -0.214200
vn 0.026100 0.898300 0.438500
vn -0.938800 0.000000 0.344500
vn 0.938800 0.000000 0.344500
vn -0.271500 -0.074100 -0.959600
vn 0.066000 0.974500 -0.214700
vn 0.283500 0.924300 -0.255400
vn -0.978400 0.000000 -0.206900
vn -0.571700 0.000000 0.820400
vn 0.538500 0.000000 -0.842600
vn -0.285200 0.000000 0.958500
vn 0.283500 -0.924300 -0.255400
vn 0.978400 0.000000 -0.206900
vn 0.479200 0.832700 -0.277400
vn 0.755500 0.000000 -0.655100
vn 0.479200 -0.832700 -0.277400
vn 0.206900 0.000000 -0.978400
vn -0.041900 -0.979300 0.198200
vn -0.206900 0.000000 0.978400
vn -0.041900 0.979300 0.198200
vn -0.300700 0.928200 -0.219100
vn -0.375600 -0.083000 -0.923000
vn -0.061600 0.889600 0.452500
vn -0.116600 -0.974700 -0.190800
vn -0.072600 0.991400 -0.109000
vn -0.073400 -0.987900 -0.136300
vn -0.034200 -0.940700 0.337500
vn -0.932900 0.000000 0.360100
vn -0.032700 -0.936900 -0.348100
vn -0.072600 0.991400 0.109000
vn -0.121600 -0.969200 0.214200
vn 0.026100 0.898300 -0.438500
vn -0.938800 0.000000 -0.344500
vn 0.938800 0.000000 -0.344500
vn -0.271500 -0.074100 0.959600
vn 0.066000 0.974500 0.214700
vn 0.283500 0.924300 0.255400
vn -0.978400 0.000000 0.206900
vn -0.571700 0.000000 -0.820400
vn 0.538500 0.000000 0.842600
vn -0.285200 0.000000 -0.958500
vn 0.283500 -0.924300 0.255400
vn 0.978400 0.000000 0.206900
vn 0.479200 0.832700 0.277400
vn 0.755500 0.000000 0.655100
vn 0.479200 -0.832700 0.277400
vn 0.206900 0.000000 0.978400
vn -0.041900 -0.979300 -0.198200
vn -0.206900 0.000000 -0.978400
vn -0.041900 0.979300 -0.198200
vn -0.300700 0.928200 0.219100
vn -0.375600 -0.083000 0.923000
vn -0.061600 0.889600 -0.452500
vn -0.116600 -0.974700 0.190800
vn -0.073400 -0.987900 0.136300
vn -0.072600 -0.991400 0.109000
vn -0.034200 -0.940700 -0.337500
vn -0.073400 0.987900 0.136300
vn 0.970200 0.000000 0.242300
usemtl Material.001
s off
f 2/1/1 4/2/1 3/3/1 1/4/1
f 34/5/2 3/3/2 10/6/2 38/7/2
f 8/8/3 6/9/3 5/10/3 7/11/3
f 35/12/4 2/13/4 1/14/4 36/15/4
f 36/16/5 34/5/5 7/17/5 5/18/5
f 35/19/6 33/20/6 4/21/6 2/22/6
f 38/7/7 10/6/7 14/23/7 40/24/7
f 33/25/8 8/26/8 11/27/8 37/28/8
f 3/3/9 4/2/9 9/29/9 10/6/9
f 8/26/10 7/17/10 12/30/10 11/27/10
f 39/31/11 15/32/11 16/33/11 40/24/11
f 37/28/12 11/27/12 15/32/12 39/31/12
f 15/32/13 11/27/13 17/34/13 19/35/13
f 13/36/14 14/23/14 28/37/14 27/38/14
f 17/34/15 18/39/15 22/39/15 21/39/15
f 16/33/16 15/32/16 19/35/16 20/40/16
f 11/27/17 12/30/17 18/39/17 17/34/17
f 12/30/18 16/33/18 20/40/18 18/39/18
f 21/39/19 22/39/19 24/39/19 23/39/19
f 19/35/20 17/34/20 21/39/20 23/39/20
f 20/40/21 19/35/21 23/39/21 24/39/21
f 18/39/22 20/40/22 24/39/22 22/39/22
f 26/41/23 25/42/23 29/43/23 30/44/23
f 9/29/14 13/36/14 27/38/14 25/42/14
f 10/6/14 9/29/14 25/42/14 26/41/14
f 14/23/14 10/6/14 26/41/14 28/37/14
f 30/44/14 29/43/14 31/45/14 32/46/14
f 25/42/24 27/38/24 31/45/24 29/43/24
f 27/38/25 28/37/25 32/46/25 31/45/25
f 28/37/26 26/41/26 30/44/26 32/46/26
f 9/29/27 37/28/27 39/31/27 13/36/27
f 13/36/28 39/31/28 40/24/28 14/23/28
f 4/2/29 33/25/29 37/28/29 9/29/29
f 12/30/30 38/7/30 40/24/30 16/33/30
f 6/47/31 8/48/31 33/20/31 35/19/31
f 1/4/32 3/3/32 34/5/32 36/16/32
f 6/49/4 35/12/4 36/15/4 5/50/4
f 7/17/33 34/5/33 38/7/33 12/30/33
f 2/51/34 1/52/34 41/53/34 42/54/34
f 70/55/35 72/56/35 46/57/35 41/53/35
f 6/58/36 35/59/36 69/60/36 44/61/36
f 72/56/37 74/62/37 50/63/37 46/57/37
f 69/64/38 71/65/38 47/66/38 44/67/38
f 41/53/39 46/57/39 45/68/39 42/54/39
f 44/67/40 47/66/40 48/69/40 43/70/40
f 73/71/41 74/62/41 52/72/41 51/73/41
f 71/65/42 73/71/42 51/73/42 47/66/42
f 51/73/43 55/74/43 53/75/43 47/66/43
f 49/76/44 63/77/44 64/78/44 50/63/44
f 53/75/45 57/79/45 58/79/45 54/80/45
f 52/72/46 56/81/46 55/74/46 51/73/46
f 47/66/47 53/75/47 54/80/47 48/69/47
f 48/69/48 54/80/48 56/81/48 52/72/48
f 57/79/49 59/79/49 60/79/49 58/79/49
f 55/74/50 59/79/50 57/79/50 53/75/50
f 56/81/51 60/79/51 59/79/51 55/74/51
f 54/80/52 58/79/52 60/79/52 56/81/52
f 62/82/53 66/83/53 65/84/53 61/85/53
f 45/68/44 61/85/44 63/77/44 49/76/44
f 46/57/44 62/82/44 61/85/44 45/68/44
f 50/63/44 64/78/44 62/82/44 46/57/44
f 66/83/44 68/86/44 67/87/44 65/84/44
f 61/85/54 65/84/54 67/87/54 63/77/54
f 63/77/55 67/87/55 68/86/55 64/78/55
f 64/78/56 68/86/56 66/83/56 62/82/56
f 45/68/57 49/76/57 73/71/57 71/65/57
f 49/76/58 50/63/58 74/62/58 73/71/58
f 42/54/59 45/68/59 71/65/59 69/64/59
f 48/69/60 52/72/60 74/62/60 72/56/60
f 1/52/61 36/88/61 70/55/61 41/53/61
f 36/88/62 5/89/62 43/70/62 70/55/62
f 43/70/63 48/69/63 72/56/63 70/55/63
f 35/59/64 2/90/64 42/91/64 69/60/64
f 44/92/65 43/93/65 5/94/65 6/95/65
