# Blender v2.75 (sub 0) OBJ File: 'LongSpaceship.blend'
# www.blender.org
mtllib LongSpaceship.mtl
o Cube_Cube.001
v 0.000000 -0.218133 -0.019683
v 0.000000 0.728794 -0.019683
v 0.000000 -0.218133 -1.477271
v 0.000000 0.728794 -1.477271
v 0.728794 -0.728794 -0.019683
v 0.728794 0.290645 -0.019683
v 0.728794 -0.728794 -1.477271
v 0.728794 0.290645 -1.477271
v 0.365790 0.509720 -1.477271
v 0.365790 -0.473463 -1.477271
v 0.365790 0.509720 -0.019683
v 0.365790 -0.473463 -0.019683
v 0.000000 1.128646 -0.019683
v 0.000000 1.128646 -1.477271
v 0.369191 0.909571 -0.019683
v 0.369191 0.909571 -1.477271
v 1.472475 -0.360341 -1.477271
v 1.472475 -1.379781 -1.477271
v 1.472475 -0.360341 -0.019683
v 1.472475 -1.379781 -0.019683
v 0.000000 -0.218133 0.329309
v 0.000000 0.728794 0.329309
v 0.728794 0.290645 0.329309
v 0.728794 -0.728794 0.329309
v 0.365790 0.509720 0.329309
v 0.365790 -0.473463 0.329309
v 0.000000 -0.156989 0.351313
v 0.000000 0.544877 0.351313
v 0.554670 0.220119 0.351313
v 0.554670 -0.535494 0.351313
v 0.285609 0.382498 0.351313
v 0.285609 -0.346242 0.351313
v 0.000000 -0.156989 1.924345
v 0.000000 0.544877 1.924345
v 0.554670 0.220119 1.924345
v 0.554670 -0.535494 1.924345
v 0.285609 0.382498 1.924345
v 0.285609 -0.346242 1.924345
v 0.000000 -0.539408 2.417044
v 0.000000 0.729518 2.417044
v 0.733560 0.290923 2.417044
v 0.733560 -0.729555 2.417044
v 0.370186 0.510221 2.417044
v 0.370186 -0.473964 2.417044
v 0.000000 -0.455299 3.546744
v 0.000000 0.476519 3.546744
v 0.469740 0.193906 3.546744
v 0.469740 -0.463649 3.546744
v 0.235597 0.335213 3.546744
v 0.235597 -0.298956 3.546744
v 0.822919 0.079227 -1.477271
v 0.822919 -0.682161 -1.477271
v 1.378350 -0.406975 -1.477271
v 1.378350 -1.168362 -1.477271
v 0.822919 0.079227 -1.282603
v 0.822919 -0.682161 -1.282603
v 1.378350 -0.406975 -1.282603
v 1.378350 -1.168362 -1.282603
v 0.062630 0.758320 -1.477271
v 0.307056 0.610809 -1.477271
v 0.064920 1.027557 -1.477271
v 0.309346 0.880045 -1.477271
v 0.062630 0.758320 -0.415480
v 0.307056 0.610809 -0.415480
v 0.064920 1.027557 -0.415480
v 0.309346 0.880045 -0.415480
v -0.728794 -0.728794 -0.019683
v -0.728794 0.290645 -0.019683
v -0.728794 -0.728794 -1.477271
v -0.728794 0.290645 -1.477271
v -0.365790 0.509720 -1.477271
v -0.365790 -0.473463 -1.477271
v -0.365790 0.509720 -0.019683
v -0.365790 -0.473463 -0.019683
v -0.369191 0.909571 -0.019683
v -0.369191 0.909571 -1.477271
v -1.472475 -0.360341 -1.477271
v -1.472475 -1.379781 -1.477271
v -1.472475 -0.360341 -0.019683
v -1.472475 -1.379781 -0.019683
v -0.728794 0.290645 0.329309
v -0.728794 -0.728794 0.329309
v -0.365790 0.509720 0.329309
v -0.365790 -0.473463 0.329309
v -0.554670 0.220119 0.351313
v -0.554670 -0.535494 0.351313
v -0.285609 0.382498 0.351313
v -0.285609 -0.346242 0.351313
v -0.554670 0.220119 1.924345
v -0.554670 -0.535494 1.924345
v -0.285609 0.382498 1.924345
v -0.285609 -0.346242 1.924345
v -0.733560 0.290923 2.417044
v -0.733560 -0.729555 2.417044
v -0.370186 0.510221 2.417044
v -0.370186 -0.473964 2.417044
v -0.469740 0.193906 3.546744
v -0.469740 -0.463649 3.546744
v -0.235597 0.335213 3.546744
v -0.235597 -0.298956 3.546744
v -0.822919 0.079227 -1.477271
v -0.822919 -0.682161 -1.477271
v -1.378350 -0.406975 -1.477271
v -1.378350 -1.168362 -1.477271
v -0.822919 0.079227 -1.282603
v -0.822919 -0.682161 -1.282603
v -1.378350 -0.406975 -1.282603
v -1.378350 -1.168362 -1.282603
v -0.062630 0.758320 -1.477271
v -0.307056 0.610809 -1.477271
v -0.064920 1.027557 -1.477271
v -0.309346 0.880045 -1.477271
v -0.062630 0.758320 -0.415480
v -0.307056 0.610809 -0.415480
v -0.064920 1.027557 -0.415480
v -0.309346 0.880045 -0.415480
vt 0.400232 0.601127
vt 0.406348 0.602343
vt 0.405558 0.606316
vt 0.399443 0.605100
vt 0.414478 0.593620
vt 0.413149 0.593215
vt 0.412020 0.591469
vt 0.412726 0.591225
vt 0.409846 0.591461
vt 0.411780 0.591875
vt 0.410702 0.591869
vt 0.397979 0.604809
vt 0.398768 0.600836
vt 0.409912 0.589883
vt 0.410480 0.596356
vt 0.415481 0.594338
vt 0.411790 0.597240
vt 0.409963 0.594375
vt 0.410607 0.588339
vt 0.413759 0.590762
vt 0.408348 0.589529
vt 0.409095 0.587160
vt 0.416123 0.593609
vt 0.416511 0.595057
vt 0.412591 0.598537
vt 0.400566 0.599450
vt 0.406681 0.600665
vt 0.415963 0.593924
vt 0.415309 0.593904
vt 0.410909 0.598526
vt 0.412093 0.592287
vt 0.410623 0.592522
vt 0.412809 0.592731
vt 0.412175 0.591684
vt 0.408508 0.591067
vt 0.408324 0.594724
vt 0.407357 0.595141
vt 0.407763 0.590638
vt 0.408138 0.588616
vt 0.408442 0.596898
vt 0.409020 0.599439
vt 0.415815 0.671174
vt 0.409715 0.701866
vt 0.340929 0.688194
vt 0.347029 0.657503
vt 0.822232 0.834185
vt 0.823107 0.843546
vt 0.770364 0.843102
vt 0.771847 0.833016
vt 0.407442 0.597109
vt 0.407657 0.599413
vt 0.397937 0.604534
vt 0.398523 0.601590
vt 0.408731 0.586344
vt 0.395274 0.594562
vt 0.395042 0.596821
vt 0.393891 0.596586
vt 0.394286 0.594307
vt 0.395450 0.589123
vt 0.394754 0.589179
vt 0.827471 0.790442
vt 0.825061 0.799675
vt 0.774071 0.790861
vt 0.776371 0.779992
vt 0.823538 0.807894
vt 0.773506 0.801735
vt 0.821888 0.826187
vt 0.772791 0.823837
vt 0.393337 0.584922
vt 0.394468 0.587392
vt 0.387425 0.589801
vt 0.386287 0.588412
vt 0.391808 0.599450
vt 0.390750 0.604774
vt 0.386080 0.603479
vt 0.386857 0.599569
vt 0.394677 0.599303
vt 0.392955 0.599439
vt 0.391923 0.600278
vt 0.391338 0.603222
vt 0.396155 0.583772
vt 0.395589 0.586447
vt 0.387239 0.593945
vt 0.386080 0.595236
vt 0.388196 0.592953
vt 0.388346 0.590006
vt 0.412248 0.591876
vt 0.411874 0.591921
vt 0.412691 0.592564
vt 0.415666 0.594284
vt 0.415799 0.594141
vt 0.415819 0.594163
vt 0.416349 0.594503
vt 0.415856 0.594168
vt 0.413359 0.576114
vt 0.411238 0.579445
vt 0.410248 0.578835
vt 0.411509 0.577017
vt 0.407198 0.579181
vt 0.408985 0.577946
vt 0.409081 0.577992
vt 0.407079 0.571640
vt 0.404475 0.572113
vt 0.404171 0.569238
vt 0.406715 0.568845
vt 0.406659 0.581002
vt 0.408617 0.570367
vt 0.414112 0.574107
vt 0.407043 0.574216
vt 0.409544 0.567850
vt 0.416321 0.573127
vt 0.416186 0.575312
vt 0.413123 0.580414
vt 0.406702 0.583318
vt 0.409815 0.577442
vt 0.408499 0.577183
vt 0.410189 0.578648
vt 0.411033 0.577360
vt 0.406146 0.578787
vt 0.405068 0.579278
vt 0.404009 0.574373
vt 0.404940 0.574378
vt 0.404734 0.580654
vt 0.404122 0.581355
vt 0.415892 0.573689
vt 0.414294 0.574249
vt 0.806415 0.733247
vt 0.765095 0.735563
vt 0.764185 0.727538
vt 0.804982 0.724422
vt 0.403549 0.572268
vt 0.403197 0.570096
vt 0.404250 0.583416
vt 0.403764 0.583761
vt 0.393282 0.574911
vt 0.392393 0.574941
vt 0.392480 0.572889
vt 0.393380 0.572838
vt 0.392340 0.579257
vt 0.391166 0.578567
vt 0.808742 0.770171
vt 0.763277 0.771432
vt 0.760867 0.761647
vt 0.812587 0.761733
vt 0.764693 0.743987
vt 0.808282 0.741801
vt 0.387238 0.574809
vt 0.387231 0.578218
vt 0.386080 0.579278
vt 0.386080 0.573684
vt 0.392023 0.570491
vt 0.393156 0.570863
vt 0.392933 0.581665
vt 0.392286 0.581023
vt 0.388080 0.575659
vt 0.388641 0.577989
vt 0.391265 0.582767
vt 0.409275 0.578016
vt 0.409570 0.578047
vt 0.410100 0.578264
vt 0.409849 0.577514
vt 0.409905 0.577695
vt 0.410447 0.577631
vt 0.415412 0.574713
vt 0.414954 0.573950
vt 0.413978 0.575596
vt 0.415865 0.575148
vt 0.415023 0.575256
vt 0.414499 0.574612
vt 0.393201 0.583744
vt 0.807286 0.779947
vt 0.764366 0.779879
vn -1.000000 0.000000 0.000000
vn -0.000000 0.000000 -1.000000
vn -0.658700 -0.752400 0.000000
vn -0.575300 -0.817900 0.000000
vn 1.000000 -0.008500 -0.000000
vn 0.516700 0.856200 -0.000000
vn -0.572400 -0.820000 0.000000
vn 0.510300 0.860000 0.000000
vn 0.000000 0.000000 1.000000
vn 1.000000 0.000000 0.000000
vn 0.658700 0.752400 0.000000
vn 0.125400 0.000000 0.992100
vn -0.204300 -0.290400 0.934800
vn 0.513800 0.857900 0.000000
vn 0.494200 0.869300 0.000000
vn 0.074800 0.124000 0.989500
vn 0.071200 0.121700 0.990000
vn -0.208800 -0.305900 0.928900
vn 0.493400 0.817600 -0.296700
vn 0.940000 0.000000 -0.341300
vn -0.552400 -0.833600 0.000000
vn 0.341000 -0.931400 0.127100
vn 0.479500 0.823800 -0.302300
vn -0.166400 -0.881400 -0.442000
vn -0.571700 -0.812700 -0.112600
vn -0.574300 -0.816600 0.058100
vn 0.973800 0.000000 0.227400
vn 0.507200 0.840500 0.190600
vn 0.502200 0.843700 0.189700
vn -1.000000 0.008500 0.000000
vn -0.516700 -0.856200 0.000000
vn 0.658700 -0.752400 0.000000
vn -0.513800 0.857900 0.000000
vn 0.575300 -0.817900 0.000000
vn -1.000000 -0.008500 -0.000000
vn -0.516700 0.856200 -0.000000
vn -0.510300 0.860000 0.000000
vn 0.572400 -0.820000 0.000000
vn -0.658700 0.752400 0.000000
vn -0.125400 0.000000 0.992100
vn 0.204300 -0.290400 0.934800
vn -0.494200 0.869300 0.000000
vn -0.074800 0.124000 0.989500
vn -0.071200 0.121700 0.990000
vn 0.208800 -0.305900 0.928900
vn -0.493400 0.817600 -0.296700
vn -0.940000 0.000000 -0.341300
vn -0.479500 0.823800 -0.302300
vn 0.571700 -0.812700 -0.112600
vn 0.574300 -0.816600 0.058100
vn -0.973800 0.000000 0.227400
vn -0.507200 0.840500 0.190600
vn -0.341000 -0.931400 0.127100
vn 1.000000 0.008500 0.000000
vn 0.516700 -0.856200 0.000000
vn 0.166400 -0.881400 -0.442000
vn -0.502200 0.843700 0.189700
vn 0.552400 -0.833600 0.000000
usemtl Material.001
s off
f 2/1/1 4/2/1 3/3/1 1/4/1
f 9/5/2 8/6/2 7/7/2 10/8/2
f 5/9/3 7/7/3 18/10/3 20/11/3
f 2/1/1 1/4/1 21/12/1 22/13/1
f 12/14/4 10/8/4 7/7/4 5/9/4
f 11/15/5 9/5/5 16/16/5 15/17/5
f 6/18/6 8/6/6 9/5/6 11/15/6
f 1/19/7 3/20/7 10/8/7 12/14/7
f 1/19/7 12/14/7 26/21/7 21/22/7
f 4/23/2 9/5/2 10/8/2 3/20/2
f 15/17/8 16/16/8 14/24/8 13/25/8
f 4/2/1 2/1/1 13/26/1 14/27/1
f 9/5/2 4/23/2 59/28/2 60/29/2
f 2/30/9 11/15/9 15/17/9 13/25/9
f 17/31/10 19/32/10 20/11/10 18/10/10
f 8/6/11 6/18/11 19/32/11 17/31/11
f 7/7/2 8/6/2 51/33/2 52/34/2
f 6/18/9 5/9/9 20/11/9 19/32/9
f 24/35/12 23/36/12 29/37/12 30/38/12
f 26/21/13 24/35/13 30/38/13 32/39/13
f 12/14/4 5/9/4 24/35/4 26/21/4
f 6/18/6 11/15/6 25/40/6 23/36/6
f 11/15/14 2/30/14 22/41/14 25/40/14
f 5/9/10 6/18/10 23/36/10 24/35/10
f 28/42/1 27/43/1 33/44/1 34/45/1
f 31/46/15 28/47/15 34/48/15 37/49/15
f 23/36/16 25/40/16 31/50/16 29/37/16
f 25/40/17 22/41/17 28/51/17 31/50/17
f 22/13/1 21/12/1 27/52/1 28/53/1
f 21/22/18 26/21/18 32/39/18 27/54/18
f 35/55/19 37/56/19 43/57/19 41/58/19
f 36/59/20 35/55/20 41/58/20 42/60/20
f 27/61/21 32/62/21 38/63/21 33/64/21
f 32/62/4 30/65/4 36/66/4 38/63/4
f 30/65/10 29/67/10 35/68/10 36/66/10
f 29/67/6 31/46/6 37/49/6 35/68/6
f 39/69/22 44/70/22 50/71/22 45/72/22
f 40/73/1 39/74/1 45/75/1 46/76/1
f 37/56/23 34/77/23 40/78/23 43/57/23
f 34/79/1 33/80/1 39/74/1 40/73/1
f 33/81/24 38/82/24 44/70/24 39/69/24
f 38/82/25 36/59/25 42/60/25 44/70/25
f 49/83/9 46/84/9 45/72/9 50/71/9
f 47/85/9 49/83/9 50/71/9 48/86/9
f 44/70/26 42/60/26 48/86/26 50/71/26
f 42/60/27 41/58/27 47/85/27 48/86/27
f 41/58/28 43/57/28 49/83/28 47/85/28
f 43/57/29 40/78/29 46/84/29 49/83/29
f 54/10/11 52/34/11 56/87/11 58/88/11
f 18/10/2 7/7/2 52/34/2 54/10/2
f 17/31/2 18/10/2 54/10/2 53/31/2
f 8/6/2 17/31/2 53/31/2 51/33/2
f 56/87/2 55/89/2 57/31/2 58/88/2
f 52/34/10 51/33/10 55/89/10 56/87/10
f 51/33/3 53/31/3 57/31/3 55/89/3
f 53/31/1 54/10/1 58/88/1 57/31/1
f 62/90/30 60/29/30 64/91/30 66/92/30
f 16/16/2 9/5/2 60/29/2 62/90/2
f 14/24/2 16/16/2 62/90/2 61/93/2
f 4/23/2 14/24/2 61/93/2 59/28/2
f 64/91/2 63/91/2 65/94/2 66/92/2
f 60/29/6 59/28/6 63/91/6 64/91/6
f 59/28/5 61/93/5 65/94/5 63/91/5
f 61/93/31 62/90/31 66/92/31 65/94/31
f 71/95/2 72/96/2 69/97/2 70/98/2
f 67/99/32 80/100/32 78/101/32 69/97/32
f 73/102/33 83/103/33 22/104/33 2/105/33
f 74/106/34 67/99/34 69/97/34 72/96/34
f 73/102/35 75/107/35 76/108/35 71/95/35
f 68/109/36 73/102/36 71/95/36 70/98/36
f 75/107/37 13/110/37 14/111/37 76/108/37
f 4/112/2 3/113/2 72/96/2 71/95/2
f 1/114/38 74/106/38 72/96/38 3/113/38
f 77/115/1 78/101/1 80/100/1 79/116/1
f 70/98/39 77/115/39 79/116/39 68/109/39
f 69/97/2 102/117/2 101/118/2 70/98/2
f 68/109/9 79/116/9 80/100/9 67/99/9
f 82/119/40 86/120/40 85/121/40 81/122/40
f 84/123/41 88/124/41 86/120/41 82/119/41
f 74/106/34 84/123/34 82/119/34 67/99/34
f 68/109/36 81/122/36 83/103/36 73/102/36
f 14/111/2 111/125/2 112/126/2 76/108/2
f 67/99/1 82/119/1 81/122/1 68/109/1
f 87/127/42 91/128/42 34/129/42 28/130/42
f 81/122/43 85/121/43 87/131/43 83/103/43
f 83/103/44 87/131/44 28/132/44 22/104/44
f 21/133/45 27/134/45 88/124/45 84/123/45
f 89/135/46 93/136/46 95/137/46 91/138/46
f 90/139/47 94/140/47 93/136/47 89/135/47
f 88/141/34 92/142/34 90/143/34 86/144/34
f 86/144/1 90/143/1 89/145/1 85/146/1
f 85/146/36 89/145/36 91/128/36 87/127/36
f 99/147/9 100/148/9 45/149/9 46/150/9
f 91/138/48 95/137/48 40/151/48 34/152/48
f 92/153/49 96/154/49 94/140/49 90/139/49
f 1/114/38 21/133/38 84/123/38 74/106/38
f 97/155/9 98/156/9 100/148/9 99/147/9
f 96/154/50 100/148/50 98/156/50 94/140/50
f 94/140/51 98/156/51 97/155/51 93/136/51
f 93/136/52 97/155/52 99/147/52 95/137/52
f 39/157/53 45/149/53 100/148/53 96/154/53
f 104/158/39 108/159/39 106/160/39 102/117/39
f 78/101/2 104/158/2 102/117/2 69/97/2
f 77/115/2 103/161/2 104/158/2 78/101/2
f 70/98/2 101/118/2 103/161/2 77/115/2
f 106/160/2 108/159/2 107/162/2 105/163/2
f 102/117/1 106/160/1 105/163/1 101/118/1
f 101/118/32 105/163/32 107/162/32 103/161/32
f 103/161/10 107/162/10 108/159/10 104/158/10
f 112/126/54 116/164/54 114/165/54 110/166/54
f 76/108/2 112/126/2 110/166/2 71/95/2
f 71/95/2 110/166/2 109/167/2 4/112/2
f 4/112/2 109/167/2 111/125/2 14/111/2
f 114/165/2 116/164/2 115/168/2 113/169/2
f 110/166/36 114/165/36 113/169/36 109/167/36
f 109/167/35 113/169/35 115/168/35 111/125/35
f 111/125/55 115/168/55 116/164/55 112/126/55
f 2/105/9 13/110/9 75/107/9 73/102/9
f 33/170/56 39/157/56 96/154/56 92/153/56
f 95/137/57 99/147/57 46/150/57 40/151/57
f 27/171/58 33/172/58 92/142/58 88/141/58
